<svg xmlns="http://www.w3.org/2000/svg" id="Layer_1" data-name="Layer 1" viewBox="58.5 25.77 91.4 91.35">
  <defs>
    <style>
      .cls-1 {
        fill: #ffffff;
        stroke: #ffffff;
        stroke-miterlimit: 10;
      }
    </style>
  </defs>
  <path class="cls-1" d="M92.22,91.36h-17.6v-38.93h18.82c4.79.08,8.25,1.52,10.28,4.28,1.23,1.71,1.85,3.77,1.85,6.14s-.64,4.45-1.89,5.97c-.47.57-1.1,1.11-1.87,1.62,1.44.74,2.57,1.76,3.39,3.03,1.04,1.62,1.57,3.59,1.57,5.87s-.6,4.5-1.77,6.36c-.75,1.24-1.71,2.29-2.83,3.13-1.27.97-2.79,1.65-4.51,2.01-1.68.35-3.51.52-5.44.52ZM75.99,89.99h16.23c1.84,0,3.58-.17,5.16-.49,1.52-.31,2.85-.91,3.96-1.76.99-.74,1.82-1.67,2.49-2.76,1.04-1.65,1.57-3.54,1.57-5.64s-.46-3.74-1.35-5.13h0c-.88-1.37-2.22-2.4-3.99-3.05l-1.48-.54,1.4-.71c1.17-.6,2.06-1.26,2.64-1.96,1.06-1.28,1.58-2.94,1.58-5.09s-.53-3.87-1.59-5.33c-1.79-2.43-4.79-3.64-9.18-3.72h-17.44v36.18ZM122.56,91.12c-3.72,0-7.05-1.16-9.91-3.46-2.89-2.34-4.36-6.15-4.36-11.31,0-4.83,1.31-8.6,3.9-11.21,2.6-2.61,6-3.93,10.11-3.93,2.43,0,4.65.44,6.61,1.32,1.99.89,3.65,2.32,4.93,4.23,1.15,1.66,1.91,3.63,2.25,5.84h0c.19,1.3.27,3.13.24,5.46v.68h-19.54c.22,2.09,1.02,3.54,2.43,4.4.95.61,2.13.91,3.52.91,1.46,0,2.59-.35,3.47-1.08.47-.38.9-.93,1.28-1.64l.19-.36h8.36l-.09.77c-.21,1.74-1.14,3.51-2.79,5.25-2.53,2.75-6.1,4.14-10.62,4.14ZM122.31,62.57c-3.79,0-6.77,1.15-9.14,3.53-2.32,2.34-3.5,5.78-3.5,10.24,0,4.73,1.29,8.17,3.85,10.24,2.6,2.09,5.65,3.16,9.04,3.16,4.12,0,7.35-1.25,9.61-3.71,1.19-1.26,1.95-2.51,2.28-3.71h-5.95c-.42.7-.89,1.27-1.41,1.69-1.11.92-2.57,1.39-4.33,1.39-1.65,0-3.08-.38-4.24-1.12-1.96-1.19-3.01-3.29-3.13-6.23l-.03-.71h19.62c0-1.93-.07-3.46-.23-4.55-.31-2-1-3.78-2.03-5.28-1.14-1.7-2.61-2.96-4.36-3.75-1.78-.8-3.81-1.2-6.05-1.2ZM91.9,84.84h-8.62v-11.38h8.75c1.74.02,3.06.24,4.04.7,1.82.83,2.79,2.43,2.79,4.65,0,2.58-.96,4.36-2.85,5.3-1.01.49-2.35.73-4.11.73ZM84.65,83.47h7.25c1.52,0,2.7-.2,3.5-.59,1.4-.7,2.08-2.03,2.08-4.07,0-1.68-.65-2.79-1.99-3.4-.8-.37-1.97-.56-3.48-.58h-7.37v8.64ZM129.09,74.08h-13.65l.11-.78c.27-1.9.97-3.43,2.06-4.55,1.13-1.16,2.7-1.75,4.69-1.75,1.83,0,3.38.55,4.62,1.62,1.26,1.08,1.97,2.67,2.11,4.72l.05.73ZM117.06,72.71h10.53c-.21-1.32-.72-2.33-1.56-3.05-.99-.86-2.24-1.29-3.72-1.29-1.62,0-2.83.44-3.7,1.33-.74.75-1.26,1.76-1.54,3ZM91.91,68.61h-8.63v-9.66h7.68c1.85,0,3.42.21,4.65.62,1.16.48,2.48,1.56,2.48,4.12,0,1.83-.62,3.14-1.85,3.89-1.12.68-2.58,1.03-4.33,1.03ZM84.65,67.24h7.26c1.49,0,2.71-.28,3.61-.83.8-.49,1.19-1.38,1.19-2.72,0-1.48-.51-2.38-1.59-2.83-1.05-.35-2.47-.53-4.17-.53h-6.3v6.91h0ZM130.5,59.12h-16.5v-5.13h16.5v5.13ZM115.37,57.75h13.75v-2.38s-13.75,0-13.75,0v2.38Z"/>
</svg>