<svg xmlns="http://www.w3.org/2000/svg" id="Layer_1" data-name="Layer 1" viewBox="53.16 21.69 91.4 91.35">
  <defs>
    <style>
      .cls-2 {
        fill: #fff;
      }
    </style>
  </defs>
  <path class="cls-2" d="M101.93,97.79h-12.95v-26.91h-8.73v-12.62h8.56c.04-.74.07-1.47.1-2.2.11-2.51.21-4.88.44-7.29.65-6.96,5.07-11.25,12.14-11.78l.35-.03c1.15-.09,2.33-.18,3.53-.16,1.41.02,2.79.1,4.25.18.62.03,1.24.07,1.88.1l1.19.06v11.99h-2.97c-1.28,0-2.58-.01-3.87,0-2.6.03-3.72,1.08-3.87,3.63-.08,1.29-.06,2.64-.04,3.94,0,.49.01.98.01,1.47h10.42l-1.42,12.66h-9.01v26.97ZM91.49,95.29h7.95v-26.97h9.27l.86-7.66h-9.89l-.17-1.58c-.04-.32-.07-.58-.07-.84,0-.51,0-1.01-.01-1.52-.02-1.34-.03-2.73.05-4.11.23-3.86,2.42-5.93,6.34-5.98,1.31-.02,2.62-.01,3.91,0h.46s0-7.11,0-7.11c-.24-.01-.47-.02-.71-.04-1.44-.08-2.8-.15-4.16-.17-1.08-.02-2.16.06-3.3.15l-.35.03c-5.81.44-9.3,3.82-9.84,9.52-.22,2.35-.32,4.69-.43,7.17-.05,1.12-.1,2.26-.16,3.41l-.06,1.18h-8.43v7.62h8.73v26.91Z"/>
</svg>