<svg xmlns="http://www.w3.org/2000/svg" id="Layer_1" data-name="Layer 1" viewBox="49.57 21.69 91.4 91.35">
  <defs>
    <style>
      .cls-2 {
        fill: #fff;
      }
    </style>
  </defs>
  <path class="cls-2" d="M99.59,89.2h-11.66v-34.17h10.76l.33,2.28c3.25-2.47,7.04-2.63,10.42-2.41,6.66.44,10.39,3.82,10.78,9.79.35,5.37.27,10.87.19,16.18-.03,2.33-.07,4.68-.07,7.04v1.25h-11.72v-4.26c.01-2.3.02-4.6,0-6.9v-1.54c-.03-2.24-.05-4.56-.24-6.8-.34-3.97-2.42-4.49-4.16-4.45-2.82.02-4.33,1.55-4.49,4.55-.16,3.09-.15,6.26-.14,9.33,0,1.31,0,2.62,0,3.93,0,1.02,0,2.04,0,3.18v2.98ZM90.42,86.7h6.66v-.48c0-1.15,0-2.17,0-3.2,0-1.3,0-2.6,0-3.91,0-3.1-.02-6.3.15-9.46.22-4.3,2.83-6.89,6.96-6.92.03,0,.05,0,.08,0,3.88,0,6.21,2.39,6.59,6.73.2,2.34.22,4.71.24,7v1.53c.04,2.31.03,4.62.03,6.93v1.75s6.71,0,6.71,0c0-1.95.04-3.89.07-5.82.08-5.51.16-10.71-.19-15.99-.3-4.67-3.07-7.11-8.45-7.46-3.6-.24-7.34,0-10.21,3.28l-1.79,2.05-.74-5.2h-6.09v29.17Z"/>
  <path class="cls-2" d="M83.64,89.21h-13.4v-34.18h13.4v34.18ZM72.73,86.71h8.4v-29.18h-8.4v29.18Z"/>
  <path class="cls-2" d="M76.98,52.63c-3.92,0-7.06-3.01-7.16-6.87-.05-1.9.7-3.77,2.07-5.14,1.37-1.38,3.26-2.16,5.17-2.11,3.86.08,6.99,3.26,6.98,7.09h0c0,3.87-3.17,7.02-7.04,7.03h-.02ZM76.92,41.51c-1.07,0-2.13.44-2.91,1.23-.8.81-1.22,1.85-1.2,2.95.06,2.25,1.85,3.94,4.16,3.94h.01c2.22,0,4.04-1.82,4.04-4.04,0-2.21-1.8-4.04-4.04-4.08-.03,0-.05,0-.08,0Z"/>
</svg>