<svg xmlns="http://www.w3.org/2000/svg" id="Layer_1" data-name="Layer 1" viewBox="49.5 21.69 91.4 91.35">
  <defs>
    <style>
      .cls-1 {
        fill: #fff;
      }
    </style>
  </defs>
  <path class="cls-1" d="M73.99,87.36h-6.1v-40.83l1.95,1.18c.31.19.61.36.9.55l4.84,3.15c6.25,4.06,12.51,8.12,18.74,12.21.69.45,1.04.45,1.7.02,6.16-4.04,12.34-8.05,18.52-12.06l5.25-3.41c.23-.15.46-.29.73-.46l1.97-1.22v40.85h-6v-29.59l-4.28,2.78c-4.29,2.78-8.58,5.56-12.85,8.37-2.77,1.82-5.55,1.84-8.27.05-4.32-2.83-8.65-5.65-12.98-8.46l-4.14-2.69v29.55ZM69.9,85.36h2.1v-31.11l1.99,1.2c.31.18.56.33.81.5l4.43,2.88c4.33,2.81,8.67,5.63,12.98,8.46,2.07,1.36,3.95,1.35,6.07-.05,4.27-2.81,8.57-5.6,12.86-8.38l4.65-3.02c.22-.14.45-.28.73-.45l1.98-1.19v31.15h2v-35.24l-4.86,3.16c-6.18,4.01-12.36,8.02-18.52,12.06-1.34.88-2.54.87-3.89-.02-6.23-4.09-12.48-8.15-18.74-12.21l-4.61-2.99v35.26Z"/>
</svg>