<svg xmlns="http://www.w3.org/2000/svg" id="Layer_1" data-name="Layer 1" viewBox="49.57 21.69 91.4 91.35">
  <defs>
    <style>
      .cls-1, .cls-2 {
        fill: #fff;
      }

      .cls-2 {
        stroke: #fff;
        stroke-miterlimit: 10;
        stroke-width: .5px;
      }
    </style>
  </defs>
  <path class="cls-1" d="M112.43,69.88c0,7.49.02,14.98,0,22.48-.01,3.75-2.56,6.31-6.3,6.32-8.05.02-16.1.03-24.14,0-4.25-.02-6.69-2.49-6.7-6.69-.04-14.04-.07-28.09-.08-42.13,0-1.28.07-2.58.29-3.85.51-2.96,2.73-4.91,5.73-4.95,6.16-.07,12.33-.04,18.49-.05,2.09,0,4.18.03,6.27.03,2.48,0,4.47,1.12,5.58,2.84.83,1.28.92,2.61.94,3.31.12,3.71.13,11.9-.07,22.68ZM109.57,81.88c0-.94,0-1.77,0-2.6,0-10.46,0-20.91.03-31.37,0-2.93-1.2-4.2-4.16-4.21-2.16,0-4.32.07-6.48.06-5.61-.01-11.22-.06-16.83-.07-2.71,0-3.98,1.29-3.98,3.98,0,11.01.03,22.03,0,33.04,0,.93.28,1.17,1.19,1.17,9.2-.03,18.4-.01,27.6-.01.83,0,1.66,0,2.62,0ZM93.88,96.08h0c3.87,0,7.74,0,11.6,0,3.07,0,4.13-1.09,4.12-4.18,0-2.19-.04-4.38.02-6.57.02-.84-.24-1.07-1.07-1.06-4.67.06-9.34.09-14.01.09-5.09,0-10.17-.04-15.26-.09-.83,0-1.18.18-1.15,1.1.06,2.12-.01,4.25,0,6.38.02,3.21,1.15,4.34,4.35,4.36,3.8.01,7.6,0,11.39,0Z"/>
  <path class="cls-2" d="M93.75,49.93c-.63,0-1.29.13-1.87-.04-.39-.11-.85-.6-.93-1-.05-.26.48-.9.79-.94,1.38-.13,2.77-.15,4.16-.12.63.01,1.02.43,1.02,1.1,0,.71-.46.99-1.08,1.02-.69.04-1.39,0-2.08,0,0,0,0-.02,0-.03Z"/>
  <path class="cls-2" d="M93.88,90.08c-.77-.01-1.42-.6-1.34-1.3.1-.79.61-1.24,1.4-1.29.72-.05,1.35.61,1.32,1.31-.03.7-.67,1.29-1.39,1.28Z"/>
</svg>