<svg xmlns="http://www.w3.org/2000/svg" id="Layer_1" data-name="Layer 1" viewBox="58.5 21.69 91.4 91.35">
  <defs>
    <style>
      .cls-1 {
        fill: none;
        stroke: #fff;
        stroke-miterlimit: 10;
        stroke-width: 3px;
      }
    </style>
  </defs>
  <path class="cls-1" d="M93.37,97.74c2.11-1.76,5.52-7.56,6.28-10.51.41-1.59,2.12-8.09,2.12-8.09,1.11,2.12,4.35,3.91,7.8,3.91,10.26,0,17.65-9.44,17.65-21.16,0-11.24-9.17-19.65-20.97-19.65-14.68,0-22.48,9.86-22.48,20.59,0,4.99,2.66,11.2,6.91,13.18.64.3.99.17,1.14-.46.11-.47.69-2.78.94-3.86.08-.34.04-.64-.24-.98-1.41-1.7-2.53-4.84-2.53-7.76,0-7.5,5.68-14.76,15.36-14.76,8.36,0,14.21,5.7,14.21,13.84,0,9.2-4.65,15.58-10.69,15.58-3.34,0-5.84-2.76-5.04-6.15.96-4.04,2.82-8.41,2.82-11.33,0-2.61-1.4-4.79-4.3-4.79-3.41,0-6.16,3.53-6.16,8.26,0,3.01,1.02,5.05,1.02,5.05,0,0-3.37,14.25-3.99,16.91-.68,2.94-.42,7.08-.12,9.77l.27,2.41Z"/>
</svg>