<svg xmlns="http://www.w3.org/2000/svg" id="Layer_1" data-name="Layer 1" viewBox="49.5 21.69 91.4 91.35">
  <defs>
    <style>
      .cls-1 {
        fill: #fff;
      }
    </style>
  </defs>
  <g>
    <path class="cls-1" d="M71.36,66.24c0,4.22,1.1,8.34,3.2,11.97l-3.4,12.4,12.69-3.33c3.5,1.91,7.43,2.91,11.44,2.91h.01c13.19,0,23.93-10.74,23.94-23.93,0-6.4-2.49-12.41-7.01-16.93-4.52-4.52-10.53-7.02-16.93-7.02-13.2,0-23.94,10.74-23.94,23.93M78.91,77.58l-.47-.75c-1.99-3.17-3.04-6.83-3.04-10.59,0-10.97,8.93-19.89,19.91-19.89,5.32,0,10.31,2.07,14.07,5.83,3.76,3.76,5.82,8.76,5.82,14.07,0,10.97-8.93,19.89-19.9,19.89h0c-3.57,0-7.07-.96-10.13-2.77l-.73-.43-7.53,1.97,2.01-7.34ZM95.3,90.19h0s0,0,0,0"/>
    <path class="cls-1" d="M89.31,56.23c-.45-1-.92-1.02-1.35-1.03-.35-.02-.75-.01-1.15-.01s-1.05.15-1.59.75c-.55.6-2.09,2.05-2.09,4.99s2.14,5.79,2.44,6.19c.3.4,4.14,6.63,10.22,9.03,5.05,1.99,6.08,1.6,7.18,1.5,1.1-.1,3.54-1.45,4.04-2.84s.5-2.59.35-2.84c-.15-.25-.55-.4-1.15-.7-.6-.3-3.54-1.75-4.09-1.95-.55-.2-.95-.3-1.35.3-.4.6-1.54,1.95-1.89,2.34-.35.4-.7.45-1.3.15-.6-.3-2.52-.93-4.81-2.97-1.78-1.59-2.98-3.54-3.33-4.14-.35-.6-.04-.92.26-1.22.27-.27.6-.7.9-1.05.3-.35.4-.6.6-1,.2-.4.1-.75-.05-1.05-.15-.3-1.31-3.26-1.84-4.44"/>
  </g>
</svg>